<?xml version="1.0" encoding="utf-8"?>
<!-- Generator: Adobe Illustrator 16.0.4, SVG Export Plug-In . SVG Version: 6.00 Build 0)  -->
<!DOCTYPE svg PUBLIC "-//W3C//DTD SVG 1.1//EN" "http://www.w3.org/Graphics/SVG/1.1/DTD/svg11.dtd">
<svg version="1.1" id="Layer_1" xmlns="http://www.w3.org/2000/svg" xmlns:xlink="http://www.w3.org/1999/xlink" x="0px" y="0px"
	 width="14px" height="14px" viewBox="0 0 14 14" enable-background="new 0 0 14 14" xml:space="preserve">
<g>
	<g>
		<path fill="#25373E" d="M7,13c-3.309,0-6-2.691-6-6c0-3.309,2.691-6,6-6s6,2.692,6,6C13,10.309,10.309,13,7,13z"/>
		<path fill="#25373E" d="M7,2c2.757,0,5,2.243,5,5c0,2.756-2.243,5-5,5S2,9.757,2,7C2,4.243,4.243,2,7,2 M7,0C3.135,0,0,3.134,0,7
			c0,3.867,3.135,7,7,7c3.866,0,7-3.133,7-7C14,3.134,10.866,0,7,0L7,0z"/>
	</g>
	<g>
		<line fill="none" stroke="#FFFFFF" stroke-miterlimit="10" x1="3.5" y1="3.5" x2="10.5" y2="10.5"/>
		<line fill="none" stroke="#FFFFFF" stroke-miterlimit="10" x1="10.5" y1="3.5" x2="3.5" y2="10.5"/>
	</g>
</g>
</svg>
