<?xml version="1.0" encoding="utf-8"?>
<!-- Generator: Adobe Illustrator 16.0.4, SVG Export Plug-In . SVG Version: 6.00 Build 0)  -->
<!DOCTYPE svg PUBLIC "-//W3C//DTD SVG 1.1//EN" "http://www.w3.org/Graphics/SVG/1.1/DTD/svg11.dtd">
<svg version="1.1" id="Layer_1" xmlns="http://www.w3.org/2000/svg" xmlns:xlink="http://www.w3.org/1999/xlink" x="0px" y="0px"
	 width="16px" height="16px" viewBox="0 0 16 16" enable-background="new 0 0 16 16" xml:space="preserve">
<g>
	<g>
		<path fill="#25373E" d="M8,15c-3.86,0-7-3.141-7-7c0-3.86,3.14-7,7-7c3.859,0,7,3.14,7,7C15,11.859,11.859,15,8,15z"/>
		<path fill="#25373E" d="M8,2c3.309,0,6,2.691,6,6s-2.691,6-6,6s-6-2.691-6-6S4.691,2,8,2 M8,0C3.582,0,0,3.582,0,8
			c0,4.419,3.582,8,8,8c4.419,0,8-3.581,8-8C16,3.582,12.419,0,8,0L8,0z"/>
	</g>
	<g>
		<path fill="#FFFFFF" d="M8,13.5c-3.033,0-5.5-2.468-5.5-5.5c0-3.033,2.467-5.5,5.5-5.5s5.5,2.467,5.5,5.5
			C13.501,11.032,11.033,13.5,8,13.5z M8,3C5.244,3,3,5.243,3,8s2.243,5,5,5c2.757,0,5-2.243,5-5S10.758,3,8,3z"/>
		<rect x="7.469" y="4.685" fill="#FFFFFF" width="1" height="3.315"/>
		
			<rect x="7.511" y="8.606" transform="matrix(0.707 0.7073 -0.7073 0.707 9.099 -3.7492)" fill="#FFFFFF" width="3.126" height="1"/>
	</g>
</g>
</svg>
