<?xml version="1.0" encoding="utf-8"?>
<!-- Generator: Adobe Illustrator 16.0.4, SVG Export Plug-In . SVG Version: 6.00 Build 0)  -->
<!DOCTYPE svg PUBLIC "-//W3C//DTD SVG 1.1//EN" "http://www.w3.org/Graphics/SVG/1.1/DTD/svg11.dtd">
<svg version="1.1" id="Layer_1" xmlns="http://www.w3.org/2000/svg" xmlns:xlink="http://www.w3.org/1999/xlink" x="0px" y="0px"
	 width="15px" height="15px" viewBox="0 0 15 15" enable-background="new 0 0 15 15" xml:space="preserve">
<g>
	<g>
		<path fill="#25373E" d="M7.5,14C3.916,14,1,11.084,1,7.5S3.916,1,7.5,1S14,3.916,14,7.5S11.084,14,7.5,14z"/>
		<path fill="#25373E" d="M7.5,2C10.532,2,13,4.467,13,7.5c0,3.032-2.468,5.5-5.5,5.5C4.467,13,2,10.532,2,7.5
			C2,4.467,4.467,2,7.5,2 M7.5,0C3.358,0,0,3.357,0,7.5C0,11.642,3.358,15,7.5,15c4.143,0,7.5-3.358,7.5-7.5
			C15,3.357,11.643,0,7.5,0L7.5,0z"/>
	</g>
	<line fill="none" stroke="#FFFFFF" stroke-width="0.5" stroke-miterlimit="10" x1="7.5" y1="13.944" x2="7.5" y2="1.163"/>
	<circle fill="#35BDB2" cx="11.11" cy="7.5" r="2.25"/>
	
		<rect x="2.05" y="5.732" transform="matrix(-0.7072 -0.707 0.707 -0.7072 1.2166 15.5038)" fill="#FFFFFF" width="3.536" height="3.536"/>
</g>
</svg>
