<?xml version="1.0" encoding="utf-8"?>
<!-- Generator: Adobe Illustrator 16.0.4, SVG Export Plug-In . SVG Version: 6.00 Build 0)  -->
<!DOCTYPE svg PUBLIC "-//W3C//DTD SVG 1.1//EN" "http://www.w3.org/Graphics/SVG/1.1/DTD/svg11.dtd">
<svg version="1.1" id="Layer_1" xmlns="http://www.w3.org/2000/svg" xmlns:xlink="http://www.w3.org/1999/xlink" x="0px" y="0px"
	 width="24px" height="24px" viewBox="0 0 24 24" enable-background="new 0 0 24 24" xml:space="preserve">
<g>
	<g>
		<path fill="#25373E" d="M12,23C5.935,23,1,18.065,1,12S5.935,1,12,1s11,4.935,11,11S18.065,23,12,23z"/>
		<path fill="#25373E" d="M12,2c5.514,0,10,4.486,10,10c0,5.514-4.486,10-10,10C6.486,22,2,17.514,2,12C2,6.486,6.486,2,12,2 M12,0
			C5.373,0,0,5.373,0,12c0,6.627,5.373,12,12,12c6.627,0,12-5.373,12-12C24,5.373,18.627,0,12,0L12,0z"/>
	</g>
	<line fill="none" stroke="#FFFFFF" stroke-width="0.5" stroke-miterlimit="10" x1="12" y1="22.311" x2="12" y2="1.861"/>
	<circle fill="#35BDB2" cx="17.776" cy="12" r="3.6"/>
	
		<rect x="3.281" y="9.171" transform="matrix(-0.7072 -0.707 0.707 -0.7072 1.9466 24.8057)" fill="#FFFFFF" width="5.658" height="5.657"/>
</g>
</svg>
