<?xml version="1.0" encoding="utf-8"?>
<!-- Generator: Adobe Illustrator 16.0.4, SVG Export Plug-In . SVG Version: 6.00 Build 0)  -->
<!DOCTYPE svg PUBLIC "-//W3C//DTD SVG 1.1//EN" "http://www.w3.org/Graphics/SVG/1.1/DTD/svg11.dtd">
<svg version="1.1" id="Layer_1" xmlns="http://www.w3.org/2000/svg" xmlns:xlink="http://www.w3.org/1999/xlink" x="0px" y="0px"
	 width="16px" height="16px" viewBox="0 0 16 16" enable-background="new 0 0 16 16" xml:space="preserve">
<g>
	<g>
		<g>
			<circle fill="#25373E" cx="8" cy="8" r="8"/>
		</g>
		<g>
			<g>
				<polygon opacity="0.5" fill="#FFFFFF" points="2.373,11.962 4.366,11.962 6.347,8 4.366,4.039 2.373,4.039 4.354,8 				"/>
				<polygon opacity="0.75" fill="#FFFFFF" points="6.347,11.962 8.34,11.962 10.32,8 8.34,4.039 6.347,4.039 8.327,8 				"/>
				<polygon fill="#FFFFFF" points="10.32,11.962 12.312,11.962 14.293,8 12.312,4.039 10.32,4.039 12.301,8 				"/>
			</g>
			<g>
				<polygon opacity="0.6" fill="none" stroke="#FFFFFF" stroke-width="0.5" stroke-miterlimit="10" points="2.373,11.962 
					4.366,11.962 6.347,8 4.366,4.039 2.373,4.039 4.354,8 				"/>
				<polygon opacity="0.8" fill="none" stroke="#FFFFFF" stroke-width="0.5" stroke-miterlimit="10" points="6.347,11.962 
					8.34,11.962 10.32,8 8.34,4.039 6.347,4.039 8.327,8 				"/>
				<polygon fill="none" stroke="#FFFFFF" stroke-width="0.5" stroke-miterlimit="10" points="10.32,11.962 12.312,11.962 14.293,8 
					12.312,4.039 10.32,4.039 12.301,8 				"/>
			</g>
		</g>
	</g>
</g>
</svg>
