<?xml version="1.0" encoding="utf-8"?>
<!-- Generator: Adobe Illustrator 16.0.4, SVG Export Plug-In . SVG Version: 6.00 Build 0)  -->
<!DOCTYPE svg PUBLIC "-//W3C//DTD SVG 1.1//EN" "http://www.w3.org/Graphics/SVG/1.1/DTD/svg11.dtd">
<svg version="1.1" id="Layer_1" xmlns="http://www.w3.org/2000/svg" xmlns:xlink="http://www.w3.org/1999/xlink" x="0px" y="0px"
	 width="16px" height="16px" viewBox="0 0 16 16" enable-background="new 0 0 16 16" xml:space="preserve">
<g>
	<g>
		<path fill="#25373E" d="M8,14.5c-3.584,0-6.5-2.916-6.5-6.5S4.416,1.5,8,1.5s6.5,2.916,6.5,6.5S11.584,14.5,8,14.5z"/>
		<path fill="#25373E" d="M8,3c2.757,0,5,2.243,5,5s-2.243,5-5,5s-5-2.243-5-5S5.243,3,8,3 M8,0C3.582,0,0,3.582,0,8
			c0,4.419,3.582,8,8,8c4.419,0,8-3.581,8-8C16,3.582,12.419,0,8,0L8,0z"/>
	</g>
	<g>
		<g>
			<path opacity="0.5" fill="#FFFFFF" d="M9.38,8c0,1.77,2.076,2.544,2.076,4.433c0,0-0.768,0.539-3.456,0.539
				c-2.688,0-3.457-0.539-3.457-0.539c0-1.889,2.078-2.663,2.078-4.433"/>
			<path fill="none" stroke="#FFFFFF" stroke-width="0.5" stroke-miterlimit="10" d="M9.38,8c0,1.77,2.076,2.544,2.076,4.433
				c0,0-0.768,0.539-3.456,0.539c-2.688,0-3.457-0.539-3.457-0.539c0-1.889,2.078-2.663,2.078-4.433S4.544,5.457,4.544,3.568
				c0,0,0.768-0.541,3.457-0.541c2.688,0,3.456,0.541,3.456,0.541C11.456,5.457,9.38,6.23,9.38,8z"/>
		</g>
	</g>
</g>
</svg>
