<?xml version="1.0" encoding="utf-8"?>
<!-- Generator: Adobe Illustrator 16.0.4, SVG Export Plug-In . SVG Version: 6.00 Build 0)  -->
<!DOCTYPE svg PUBLIC "-//W3C//DTD SVG 1.1//EN" "http://www.w3.org/Graphics/SVG/1.1/DTD/svg11.dtd">
<svg version="1.1" id="Layer_1" xmlns="http://www.w3.org/2000/svg" xmlns:xlink="http://www.w3.org/1999/xlink" x="0px" y="0px"
	 width="16px" height="16px" viewBox="0 0 16 16" enable-background="new 0 0 16 16" xml:space="preserve">
<g>
	<circle fill="#25373E" cx="8" cy="8" r="8"/>
	<g>
		<circle fill="none" stroke="#FFFFFF" stroke-width="0.5" stroke-miterlimit="10" cx="8.001" cy="8" r="5.25"/>
		<g>
			<circle fill="#FFFFFF" cx="6.319" cy="11.172" r="0.25"/>
			<circle fill="#FFFFFF" cx="7.16" cy="11.172" r="0.25"/>
			<circle fill="#FFFFFF" cx="8" cy="11.172" r="0.25"/>
			<circle fill="#FFFFFF" cx="8.841" cy="11.172" r="0.25"/>
			<circle fill="#FFFFFF" cx="9.683" cy="11.172" r="0.25"/>
			<circle fill="#FFFFFF" cx="10.523" cy="11.172" r="0.25"/>
			<circle fill="#FFFFFF" cx="5.478" cy="11.172" r="0.25"/>
		</g>
		<g>
			<circle fill="#FFFFFF" cx="4.974" cy="9.558" r="0.5"/>
			<circle fill="#FFFFFF" cx="6.488" cy="9.558" r="0.5"/>
			<circle fill="#FFFFFF" cx="8" cy="9.558" r="0.5"/>
			<circle fill="#FFFFFF" cx="9.513" cy="9.558" r="0.5"/>
			<circle fill="#FFFFFF" cx="11.026" cy="9.558" r="0.5"/>
		</g>
		<g>
			<circle fill="#FFFFFF" cx="4.853" cy="7.193" r="1"/>
			<circle fill="#FFFFFF" cx="8" cy="7.193" r="1"/>
			<circle fill="#FFFFFF" cx="11.148" cy="7.193" r="1"/>
		</g>
		<g>
			<path fill="#FFFFFF" d="M7.816,3.352C6.525,3.402,5.372,3.977,4.558,4.87c0.345,0.283,0.78,0.459,1.261,0.459
				C6.917,5.329,7.804,4.445,7.816,3.352z"/>
			<path fill="#FFFFFF" d="M10.183,5.329c0.48,0,0.916-0.176,1.26-0.458c-0.812-0.895-1.967-1.469-3.258-1.52
				C8.197,4.445,9.085,5.329,10.183,5.329z"/>
		</g>
	</g>
</g>
</svg>
