<?xml version="1.0" encoding="utf-8"?>
<!-- Generator: Adobe Illustrator 16.0.4, SVG Export Plug-In . SVG Version: 6.00 Build 0)  -->
<!DOCTYPE svg PUBLIC "-//W3C//DTD SVG 1.1//EN" "http://www.w3.org/Graphics/SVG/1.1/DTD/svg11.dtd">
<svg version="1.1" id="Layer_1" xmlns="http://www.w3.org/2000/svg" xmlns:xlink="http://www.w3.org/1999/xlink" x="0px" y="0px"
	 width="16px" height="16px" viewBox="0 0 16 16" enable-background="new 0 0 16 16" xml:space="preserve">
<g>
	<path fill="#25373E" d="M-114.133-0.336c0,2.209-1.791,4-4,4h-8c-2.209,0-4-1.791-4-4v-8c0-2.209,1.791-4,4-4h8
		c2.209,0,4,1.791,4,4V-0.336z"/>
	<g>
		<polygon fill="#FFFFFF" points="-120.054,-1.357 -125.212,-4.336 -120.054,-7.314 		"/>
	</g>
</g>
<g opacity="0.2">
	<path fill="#25373E" d="M129.514-8.604c0-2.209,1.791-4,4-4h8c2.209,0,4,1.791,4,4v8c0,2.21-1.791,4-4,4h-8c-2.209,0-4-1.79-4-4
		V-8.604z"/>
	<g>
		<polygon fill="#FFFFFF" points="135.436,-7.583 140.594,-4.604 135.436,-1.626 		"/>
	</g>
</g>
<g>
	<path fill="#25373E" d="M-129.875,24.337c0,2.21,1.79,4,4,4h8c2.209,0,4-1.79,4-4v-7.999c0-2.21-1.791-4-4-4h-8c-2.21,0-4,1.79-4,4
		V24.337z"/>
	<g>
		<polygon fill="#FFFFFF" points="-123.954,23.315 -118.796,20.338 -123.954,17.359 		"/>
	</g>
</g>
<g opacity="0.2">
	<path fill="#25373E" d="M145.922,15.688c0-2.21-1.791-4-4-4h-8c-2.209,0-4,1.79-4,4v7.999c0,2.211,1.791,4,4,4h8
		c2.209,0,4-1.789,4-4V15.688z"/>
	<g>
		<polygon fill="#FFFFFF" points="140,16.71 134.842,19.688 140,22.666 		"/>
	</g>
</g>
<g opacity="0.3">
	<path fill="#25373E" d="M16,12c0,2.209-1.791,4-4,4H4c-2.209,0-4-1.791-4-4V4c0-2.209,1.791-4,4-4h8c2.209,0,4,1.791,4,4V12z"/>
	<g>
		<polygon fill="#FFFFFF" points="10.078,10.979 4.921,8 10.078,5.021 		"/>
	</g>
</g>
</svg>
