<?xml version="1.0" encoding="utf-8"?>
<!-- Generator: Adobe Illustrator 16.0.4, SVG Export Plug-In . SVG Version: 6.00 Build 0)  -->
<!DOCTYPE svg PUBLIC "-//W3C//DTD SVG 1.1//EN" "http://www.w3.org/Graphics/SVG/1.1/DTD/svg11.dtd">
<svg version="1.1" id="Layer_1" xmlns="http://www.w3.org/2000/svg" xmlns:xlink="http://www.w3.org/1999/xlink" x="0px" y="0px"
	 width="24px" height="24px" viewBox="0 0 24 24" enable-background="new 0 0 24 24" xml:space="preserve">
<g>
	<g>
		<path fill="#25373E" d="M12,23C5.935,23,1,18.065,1,12S5.935,1,12,1s11,4.935,11,11S18.065,23,12,23z"/>
		<path fill="#25373E" d="M12,2c5.514,0,10,4.486,10,10c0,5.514-4.486,10-10,10C6.486,22,2,17.514,2,12C2,6.486,6.486,2,12,2 M12,0
			C5.373,0,0,5.373,0,12c0,6.627,5.373,12,12,12c6.627,0,12-5.373,12-12C24,5.373,18.627,0,12,0L12,0z"/>
	</g>
	<g>
		<g>
			<rect x="6.75" y="7.125" fill="#FFFFFF" width="10.5" height="0.75"/>
			<rect x="11.625" y="4.5" fill="#FFFFFF" width="0.75" height="3.375"/>
			<rect x="16.5" y="7.125" fill="#FFFFFF" width="0.75" height="4.5"/>
			<rect x="6.75" y="7.125" fill="#FFFFFF" width="0.75" height="4.5"/>
		</g>
		<circle fill="#FFFFFF" cx="7.125" cy="11.625" r="1.125"/>
		<circle fill="#FFFFFF" cx="16.875" cy="11.625" r="1.125"/>
		<circle fill="#FFFFFF" cx="12" cy="4.5" r="1.5"/>
		<g>
			<g>
				<rect x="3.75" y="11.25" fill="#FFFFFF" width="6.75" height="0.75"/>
				<rect x="9.75" y="11.25" fill="#FFFFFF" width="0.75" height="4.125"/>
				<rect x="3.75" y="11.25" fill="#FFFFFF" width="0.75" height="4.125"/>
			</g>
			<circle fill="#FFFFFF" cx="10.125" cy="15.375" r="1.125"/>
			<circle fill="#FFFFFF" cx="4.125" cy="15.375" r="1.125"/>
		</g>
		<g>
			<g>
				<rect x="13.5" y="11.25" fill="#FFFFFF" width="6.75" height="0.75"/>
				<rect x="19.5" y="11.25" fill="#FFFFFF" width="0.75" height="4.125"/>
				<rect x="13.5" y="11.25" fill="#FFFFFF" width="0.75" height="4.125"/>
			</g>
			<circle fill="#FFFFFF" cx="13.875" cy="15.375" r="1.125"/>
			<circle fill="#FFFFFF" cx="19.875" cy="15.375" r="1.125"/>
		</g>
	</g>
</g>
</svg>
