<?xml version="1.0" encoding="utf-8"?>
<!-- Generator: Adobe Illustrator 16.0.4, SVG Export Plug-In . SVG Version: 6.00 Build 0)  -->
<!DOCTYPE svg PUBLIC "-//W3C//DTD SVG 1.1//EN" "http://www.w3.org/Graphics/SVG/1.1/DTD/svg11.dtd">
<svg version="1.1" id="Layer_1" xmlns="http://www.w3.org/2000/svg" xmlns:xlink="http://www.w3.org/1999/xlink" x="0px" y="0px"
	 width="24px" height="24px" viewBox="0 0 24 24" enable-background="new 0 0 24 24" xml:space="preserve">
<g>
	<g>
		<path fill="#25373E" d="M12,23C5.935,23,1,18.065,1,12S5.935,1,12,1s11,4.935,11,11S18.065,23,12,23z"/>
		<path fill="#25373E" d="M12,2c5.514,0,10,4.486,10,10c0,5.514-4.486,10-10,10C6.486,22,2,17.514,2,12C2,6.486,6.486,2,12,2 M12,0
			C5.372,0,0,5.373,0,12c0,6.628,5.372,12,12,12c6.627,0,12-5.372,12-12C24,5.373,18.627,0,12,0L12,0z"/>
	</g>
	<g>
		<path fill="none" d="M15.699,7.607c-1.337-1.337-3.513-1.337-4.849,0c-1.127,1.126-1.3,2.848-0.526,4.163
			c0.144,0.244,0.317,0.477,0.526,0.686c0.209,0.209,0.442,0.382,0.685,0.527c1.314,0.773,3.037,0.601,4.164-0.527
			C17.035,11.119,17.035,8.944,15.699,7.607z"/>
		<path fill="#FFFFFF" d="M16.911,6.395c-2.009-2.009-5.265-2.009-7.273,0c-1.802,1.801-1.981,4.604-0.552,6.612l-4.297,4.297
			l1.212,1.212l4.297-4.296c2.008,1.429,4.812,1.249,6.612-0.553C18.919,11.66,18.919,8.403,16.911,6.395z M11.535,12.982
			c-0.243-0.145-0.476-0.317-0.685-0.527c-0.209-0.209-0.382-0.441-0.526-0.686C9.55,10.456,9.723,8.734,10.85,7.607
			c1.336-1.337,3.512-1.337,4.849,0c1.336,1.337,1.336,3.511,0,4.848C14.572,13.583,12.85,13.756,11.535,12.982z"/>
	</g>
</g>
</svg>
