<?xml version="1.0" encoding="utf-8"?>
<!-- Generator: Adobe Illustrator 16.0.4, SVG Export Plug-In . SVG Version: 6.00 Build 0)  -->
<!DOCTYPE svg PUBLIC "-//W3C//DTD SVG 1.1//EN" "http://www.w3.org/Graphics/SVG/1.1/DTD/svg11.dtd">
<svg version="1.1" id="Layer_1" xmlns="http://www.w3.org/2000/svg" xmlns:xlink="http://www.w3.org/1999/xlink" x="0px" y="0px"
	 width="24px" height="24px" viewBox="0 0 24 24" enable-background="new 0 0 24 24" xml:space="preserve">
<g>
	<g>
		<path fill="#25373E" d="M12,23C5.935,23,1,18.065,1,12S5.935,1,12,1s11,4.935,11,11S18.065,23,12,23z"/>
		<path fill="#25373E" d="M12,2c5.514,0,10,4.486,10,10c0,5.514-4.486,10-10,10C6.486,22,2,17.514,2,12C2,6.486,6.486,2,12,2 M12,0
			C5.373,0,0,5.372,0,12c0,6.627,5.373,12,12,12c6.628,0,12-5.373,12-12C24,5.372,18.628,0,12,0L12,0z"/>
	</g>
	<g>
		<path opacity="0.75" fill="#35BDB2" enable-background="new    " d="M12,11.718c1.803,0,3.27,1.468,3.27,3.269
			c0,1.803-1.467,3.268-3.27,3.268c-1.802,0-3.269-1.466-3.269-3.268C8.731,13.184,10.198,11.718,12,11.718 M12,10.317
			c-2.578,0-4.668,2.091-4.668,4.669s2.09,4.668,4.668,4.668c2.579,0,4.669-2.09,4.669-4.668S14.579,10.317,12,10.317L12,10.317z"/>
		<circle fill="#25373E" cx="12" cy="14.987" r="3.273"/>
		<circle fill="#FFFFFF" cx="12" cy="14.986" r="2"/>
		<g opacity="0.3">
			<g>
				<g>
					<path fill="#FFFFFF" d="M8.508,7.256c-0.274,0-0.535-0.163-0.647-0.432L7.095,4.977C6.947,4.619,7.117,4.209,7.474,4.062
						C7.833,3.912,8.241,4.083,8.389,4.44l0.765,1.848c0.147,0.356-0.021,0.767-0.378,0.915C8.688,7.239,8.597,7.256,8.508,7.256z"
						/>
				</g>
			</g>
		</g>
		<g opacity="0.5">
			<g>
				<g>
					<path fill="#FFFFFF" d="M6.114,9.802c-0.179,0-0.358-0.068-0.495-0.205l-1.98-1.979c-0.273-0.273-0.274-0.717,0-0.99
						c0.274-0.274,0.716-0.274,0.989,0l1.98,1.979c0.273,0.273,0.274,0.716,0,0.99C6.473,9.733,6.292,9.802,6.114,9.802z"/>
				</g>
			</g>
		</g>
		<g opacity="0.5" enable-background="new    ">
			<g>
				<g>
					<path fill="#FFFFFF" d="M17.886,9.801c-0.179,0-0.359-0.068-0.495-0.205c-0.272-0.272-0.272-0.716,0-0.99l1.979-1.979
						c0.271-0.274,0.717-0.274,0.988,0c0.274,0.273,0.274,0.715,0,0.99L18.38,9.596C18.243,9.732,18.063,9.801,17.886,9.801z"/>
				</g>
			</g>
		</g>
		<g>
			<g>
				<g>
					<path fill="#FFFFFF" d="M12,15.686c-0.089,0-0.18-0.019-0.267-0.055c-0.357-0.146-0.527-0.557-0.379-0.914L15.61,4.438
						c0.146-0.357,0.561-0.526,0.913-0.379c0.356,0.148,0.528,0.559,0.379,0.915l-4.257,10.278
						C12.535,15.521,12.274,15.686,12,15.686z"/>
				</g>
			</g>
		</g>
		<g>
			<g>
				<g>
					<path opacity="0.5" fill="#FFFFFF" d="M11.998,7.362c-0.387,0-0.7-0.313-0.7-0.699l-0.001-2.801
						c0-0.386,0.313-0.699,0.701-0.699l0,0c0.387,0,0.699,0.313,0.699,0.699l0.002,2.801C12.698,7.049,12.385,7.361,11.998,7.362
						L11.998,7.362z"/>
				</g>
			</g>
		</g>
	</g>
</g>
</svg>
